PathFileType	4	(X/Y/Z)	D:\Long Term Storage\D'Arcy Smith\Coord7.trc
DataRate	CameraRate	NumFrames	NumMarkers	Units	OrigDataRate	OrigDataStartFrame	OrigNumFrames
120.00	120.00	      134	4	mm	120.00	1823	      4859
Frame#	Time	M1			M2			M3			M4			
		X1	Y1	Z1	X2	Y2	Z2	X3	Y3	Z3	X4	Y4	Z4	

1823	15.183	1119.09094	413.23471	216.47543	1593.46191	320.12234	392.30215							
1824	15.192	1113.87366	407.71341	226.22429	1595.93945	314.82935	406.34882							
1825	15.200	1108.63867	402.08218	236.53804	1598.11499	310.33936	420.05634							
1826	15.208	1103.35840	396.58865	247.72055	1600.37134	306.41656	435.07928							
1827	15.217	1098.13831	390.90579	257.86783	1602.73059	302.67914	449.12589							
1828	15.225	1092.87134	384.95087	272.98511	1604.50159	300.22101	465.30069							
1829	15.233	1088.16492	379.93759	285.03564	1606.87000	298.02911	481.94849							
1830	15.242	1083.80774	374.84052	297.29883	1608.52271	297.26392	498.21417							
1831	15.250	1079.68201	370.17319	309.38846	1609.90881	297.60483	514.23456							
1832	15.258	1075.93689	365.72214	321.28482	1611.29651	298.96310	530.44562							
1833	15.267	1072.69604	361.55853	332.75812	1612.13721	301.32285	545.46252							
1834	15.275	1069.63391	357.85278	343.94614	1613.51794	304.84894	561.63788							
1835	15.283	1065.83289	353.20096	356.10770	1614.23108	308.84372	576.77130							
1836	15.292	1063.62463	349.92700	365.84930	1614.50366	313.76813	589.94098							
1837	15.300	1061.54102	346.78387	375.07733	1615.18274	319.03622	603.38159							
1838	15.308	1059.63074	343.89642	383.26630	1616.09265	324.55325	617.00342							
1839	15.317	1058.01819	341.12152	390.50278	1616.32239	330.89267	629.61536							
1840	15.325	1056.59814	338.62360	398.97800	1616.83240	337.29669	641.34253							
1841	15.333	1055.24817	335.80466	403.25772	1617.03040	343.35626	652.84180							
1842	15.342	1054.18762	333.22998	409.68707	1617.53796	349.66354	663.45404							
1843	15.350	1053.16223	330.65619	414.53329	1618.06067	356.11142	673.90094							
1844	15.358	1051.56970	328.21606	420.66852	1618.45776	362.50876	683.45013							
1845	15.367	1050.11084	325.69022	425.58151	1618.89355	368.56577	692.30353							
1846	15.375	1048.95386	323.29791	430.19916	1619.32153	374.51663	700.90503							
1847	15.383	1047.15063	320.75168	436.13538	1619.40723	380.43927	708.57318							
1848	15.392	1046.31213	318.53186	440.95856	1619.68250	385.85361	715.65582							
1849	15.400	1044.56970	316.44534	446.98270	1619.71204	391.31851	722.56470							
1850	15.408	1043.72632	315.39291	450.90234	1620.30591	397.05914	730.72131							
1851	15.417	1042.96399	314.46185	455.41354	1620.28650	402.00458	735.90161							
1852	15.425	1042.09766	313.85468	460.31580	1620.41382	406.53378	740.65076							
1853	15.433	1041.33521	314.20453	466.14038	1620.39502	410.62546	744.35687							
1854	15.442	1040.95288	314.23727	471.29825	1620.19348	414.33029	747.17834							
1855	15.450	1040.76343	314.70300	476.45102	1620.03381	417.41846	748.99377							
1856	15.458	1040.49768	315.48999	481.53799	1619.74036	420.02695	749.92480							
1857	15.467	1041.68762	316.71439	485.70245	1619.44092	421.90237	750.23608							
1858	15.475	1040.45386	317.92499	491.79898	1618.99792	423.49814	749.84802							
1859	15.483	1042.58032	319.65820	495.05664	1618.52014	424.18192	748.86212							
1860	15.492	1043.23804	321.44308	499.27887	1617.93616	424.05365	747.14557							
1861	15.500	1045.02698	323.17062	502.27722	1617.17896	422.89246	744.15253							
1862	15.508	1046.86975	324.97604	504.29306	1616.58557	421.16278	741.40649							
1863	15.517	1049.45886	326.56311	504.62332	1615.79651	418.86011	737.08728							
1864	15.525	1052.25708	327.82361	504.02005	1615.08948	415.83047	732.88678							
1865	15.533	1055.16003	328.86728	502.76303	1614.38904	412.24701	727.80072							
1866	15.542	1058.47937	329.91669	500.38144	1613.72729	408.06885	722.30896							
1867	15.550	1061.81848	330.66193	496.58435	1613.21350	403.47873	716.39722							
1868	15.558	1066.19312	331.42343	491.11478	1612.46863	398.29044	709.09436							
1869	15.567	1070.10449	331.71069	484.87506	1611.66040	393.04755	701.68872							
1870	15.575	1074.08521	332.37454	477.91086	1610.76807	387.42822	693.13373							
1871	15.583	1077.26270	332.90469	470.83542	1609.91028	381.86896	684.42969							
1872	15.592	1081.04358	333.65726	462.71353	1608.57251	375.87399	674.71753							
1873	15.600	1085.14673	334.73972	455.59314	1606.76135	369.78452	662.08032							
1874	15.608	1088.62073	335.95782	446.94452	1605.37366	363.09567	652.06232							
1875	15.617	1091.64197	337.62817	437.74545	1603.41443	357.22931	640.86127							
1876	15.625	1094.41077	339.61310	428.87662	1601.39246	351.23410	628.44415							
1877	15.633	1096.50110	342.04532	418.78644	1599.47424	345.82199	615.43970							
1878	15.642	1098.74500	344.53363	411.48306	1597.34534	341.36487	600.86316							
1879	15.650	1100.76575	346.91791	403.68738	1595.38330	337.09171	588.91040							
1880	15.658	1101.75745	349.55392	394.10934	1592.95618	332.99557	573.90662							
1881	15.667	1102.49146	352.65768	387.00092	1590.25818	329.18683	558.59058							
1882	15.675	1103.37708	355.75638	379.55255	1587.04688	325.31454	540.24963							
1883	15.683	1103.38037	358.88550	372.61569	1584.65076	322.34918	523.04980							
1884	15.692	1103.85156	362.02274	365.35303	1580.82910	320.61951	506.28958							
1885	15.700	1103.54761	364.99030	359.20752	1577.25281	319.53989	489.39398							
1886	15.708	1104.30652	368.23804	352.18637	1574.36780	318.74274	471.95117							
1887	15.717	1104.39343	371.10294	347.20773	1570.67383	318.88260	454.76270							
1888	15.725	1104.28931	374.18671	341.56500	1567.06262	319.82053	437.39423							
1889	15.733	1104.73779	377.19965	333.90747	1563.54053	321.34769	420.33365							
1890	15.742	1105.29492	380.26724	329.43335	1559.81348	323.66901	403.33234							
1891	15.750	1106.01147	383.04895	323.99252	1556.10364	326.47702	386.37167							
1892	15.758	1106.53174	385.97015	317.96106	1552.31421	329.93689	370.36554							
1893	15.767	1107.01416	388.94650	312.10458	1548.83325	333.61420	354.78516							
1894	15.775	1107.96130	391.81235	307.68118	1545.29565	337.82880	339.78912							
1895	15.783	1108.63098	394.75470	301.24347	1542.01172	342.18375	325.70978							
1896	15.792	1109.83887	397.60703	297.23358	1538.62585	346.68372	312.46225							
1897	15.800	1110.39563	400.47821	292.04474	1535.79822	351.34241	300.51392							
1898	15.808	1111.02405	403.15433	286.36591	1532.89514	355.41925	290.11188							
1899	15.817	1112.19360	405.80573	282.97211	1530.40601	359.49167	280.63516							
1900	15.825	1112.74414	408.48532	277.97998	1528.29395	363.26334	272.47787							
1901	15.833	1113.24841	410.86563	272.96039	1526.57544	366.53375	266.07489							
1902	15.842	1113.97778	413.20557	269.10532	1525.21423	369.02426	261.04904							
1903	15.850	1114.87830	415.45959	266.29147	1524.21021	370.80600	257.87622							
1904	15.858	1115.08704	417.16977	263.15088	1523.65295	371.62411	256.26501							
1905	15.867	1115.40259	419.61227	257.48822	1523.45300	371.60562	256.16077							
1906	15.875	1116.09521	421.86929	254.86641	1523.85022	370.56757	257.71173							
1907	15.883	1116.67212	423.50067	253.30202	1524.60681	368.65527	260.96112							
1908	15.892	1115.95264	424.80154	251.13139	1525.74780	365.88348	265.72983							
1909	15.900	1115.94763	425.89548	250.41560	1527.54102	361.89346	271.66449							
1910	15.908	1114.98645	426.75375	249.42108	1529.04578	357.92419	279.18341							
1911	15.917	1114.09143	427.43329	249.12595	1531.28418	352.71942	287.78156							
1912	15.925	1112.98157	427.99194	249.40262	1533.89038	347.32907	297.49200							
1913	15.933	1111.93103	428.30737	249.95952	1536.90527	341.84143	308.59854							
1914	15.942	1111.13879	428.49216	251.61348	1540.21130	335.69019	320.52524							
1915	15.950	1109.47571	428.42456	253.15996	1543.66016	329.35568	334.24319							
1916	15.958	1108.06958	428.33017	254.96397	1547.56104	323.07864	348.27469							
1917	15.967	1106.50586	428.00409	256.97363	1551.61597	316.64026	363.55588							
1918	15.975	1104.56897	427.74762	258.36038	1555.96729	310.67728	379.56119							
1919	15.983	1103.65662	427.53033	260.60843	1560.56982	305.37982	396.05753							
1920	15.992	1102.24756	427.26807	262.08789	1565.01965	300.69833	414.30176							
1921	16.000	1100.71497	427.29691	262.39560	1569.55164	297.08929	432.31647							
1922	16.008	1099.43396	426.72382	264.02576	1573.94336	293.72519	452.26740							
1923	16.017	1098.66919	426.01901	269.63736	1578.25061	293.12308	469.28510							
1924	16.025	1097.86194	426.04855	270.37262	1582.62109	293.08508	487.59015							
1925	16.033	1097.09583	426.29697	270.49051	1586.89954	293.64096	506.12302							
1926	16.042	1096.30334	426.57565	270.80469	1590.88538	295.94052	523.79895							
1927	16.050	1095.73157	426.99924	270.33340	1594.89880	299.20090	541.06213							
1928	16.058	1094.90015	427.89240	268.60693	1598.67908	303.28958	557.79181							
1929	16.067	1094.59778	428.94861	265.13715	1602.42078	308.26599	573.81189							
1930	16.075	1094.35742	430.15924	263.56091	1606.07947	314.15793	588.78979							
1931	16.083	1094.09595	430.88748	263.08984	1609.39856	320.37625	603.55530							
1932	16.092	1094.47827	431.65924	262.83270	1612.61328	327.01709	617.22400							
1933	16.100	1094.31323	432.58676	261.58731	1615.82886	333.84930	630.37012							
1934	16.108	1094.39233	433.50955	260.06970	1618.68286	340.61737	642.64880							
1935	16.117	1094.27393	434.37769	257.61661	1621.37878	347.25586	654.11719							
1936	16.125	1094.45923	435.11426	255.62682	1624.00720	353.54968	665.11230							
1937	16.133	1095.05859	435.41632	254.36647	1625.29663	359.52936	674.94800							
1938	16.142	1095.11182	435.43744	252.35759	1627.38293	365.94370	684.14844							
1939	16.150	1095.20911	435.01892	250.41216	1628.98376	371.51532	692.80353							
1940	16.158	1094.91797	433.99646	248.28703	1630.32275	376.91595	700.88110							
1941	16.167	1094.87537	432.16635	246.72447	1630.80054	381.38507	709.41052							
1942	16.175	1095.16736	429.64468	246.11353	1631.14563	386.73328	715.90741							
1943	16.183	1094.64148	426.11993	245.08031	1631.44495	391.57111	722.49078							
1944	16.192	1094.11255	421.84647	244.59474	1631.72925	396.64688	730.20319							
1945	16.200	1093.21033	416.75793	244.37695	1631.40991	400.88077	735.09430							
1946	16.208	1092.49622	410.68503	245.44395	1630.83423	404.83090	739.26538							
1947	16.217	1092.22510	403.89951	248.01976	1629.99548	408.53293	742.94073							
1948	16.225	1091.49792	396.69183	251.11234	1628.96313	411.77771	745.60657							
1949	16.233	1090.73474	389.24872	254.23643	1627.57678	414.16632	745.98413							
1950	16.242	1089.77490	380.80429	261.86304	1626.41187	416.89175	748.32843							
1951	16.250	1088.98035	372.60626	268.86499	1624.59399	418.69080	748.39844							
1952	16.258	1088.32251	364.36099	275.96976	1622.84656	419.82550	747.67670							
1953	16.267	1087.79822	356.12576	284.55533	1620.69690	420.22110	746.13477							
1954	16.275	1087.14929	348.02722	294.03549	1618.15833	419.89182	743.78381							
1955	16.283	1086.46765	340.15518	304.50574	1615.56177	418.37997	740.20313							
1956	16.292	1085.80005	332.95261	315.72055	1612.52222	415.86078	735.49597							
